<svg width="116" height="66" viewBox="0 0 116 66" fill="none" xmlns="http://www.w3.org/2000/svg">
<g id="02.">
<path d="M45.9216 33.2851C45.9216 37.0863 45.546 40.8874 44.7947 44.6886C44.0435 48.4898 42.7913 51.9108 41.0384 54.9518C39.348 57.9927 37.0316 60.4635 34.0891 62.364C31.2092 64.2646 27.6093 65.2149 23.2895 65.2149C18.4062 65.2149 14.4307 64.2963 11.363 62.4591C8.35793 60.6218 6.0102 58.2144 4.31983 55.2368C2.62946 52.2593 1.47125 48.8699 0.845184 45.0687C0.281728 41.2675 0 37.403 0 33.4751C0 29.9274 0.313031 26.2212 0.939093 22.3567C1.56516 18.4288 2.72337 14.8494 4.41374 11.6184C6.1041 8.38743 8.45184 5.72661 11.4569 3.63596C14.5246 1.54532 18.5001 0.5 23.3834 0.5C26.7015 0.5 29.5501 1.00682 31.9292 2.02047C34.3082 3.03411 36.3429 4.3962 38.0333 6.10673C39.7236 7.7539 41.0697 9.68616 42.0714 11.9035C43.1357 14.1209 43.9496 16.4649 44.513 18.9357C45.0765 21.3431 45.4521 23.7822 45.6399 26.2529C45.8277 28.7237 45.9216 31.0677 45.9216 33.2851ZM38.2211 33.4751C38.2211 31.0044 38.0959 28.2169 37.8455 25.1126C37.6576 22.0083 37.0629 19.0941 36.0612 16.3699C35.0595 13.6457 33.5569 11.365 31.5535 9.52777C29.6127 7.62719 26.8894 6.6769 23.3834 6.6769C19.8775 6.6769 17.0602 7.56384 14.9316 9.33772C12.8656 11.1116 11.3004 13.3606 10.2361 16.0848C9.17181 18.7456 8.48314 21.6598 8.17011 24.8275C7.85708 27.9951 7.70056 30.941 7.70056 33.6652C7.70056 37.213 7.88838 40.539 8.26402 43.6433C8.70226 46.7476 9.48484 49.4401 10.6118 51.7208C11.7387 54.0015 13.3038 55.807 15.3072 57.1374C17.3732 58.4678 20.0653 59.133 23.3834 59.133C26.3885 59.133 28.8615 58.3728 30.8023 56.8523C32.743 55.3319 34.2456 53.3679 35.3099 50.9605C36.4368 48.4898 37.1881 45.7339 37.5637 42.693C38.002 39.5887 38.2211 36.5161 38.2211 33.4751Z" fill="#F48514"/>
<path d="M63.6346 58.7529H94.4368V64.5497H53.0228V59.3231C54.7132 57.6759 56.654 55.8387 58.8452 53.8114C61.0364 51.7841 63.2902 49.6301 65.6067 47.3494C67.9231 45.0687 70.1769 42.7247 72.3681 40.3173C74.6219 37.8465 76.6253 35.3757 78.3783 32.905C80.1313 30.4342 81.5399 27.9951 82.6042 25.5877C83.6685 23.1803 84.2007 20.8679 84.2007 18.6506C84.2007 14.596 83.0112 11.6501 80.6321 9.81286C78.2531 7.91228 75.1541 6.96199 71.3351 6.96199C69.77 6.96199 67.61 7.24708 64.8554 7.81725C62.1633 8.32407 59.0017 9.68616 55.3705 11.9035L52.7411 7.3421C54.6193 5.94834 56.4974 4.80799 58.3756 3.92105C60.2538 3.03411 62.0381 2.33723 63.7285 1.83041C65.4814 1.32359 67.1092 0.975146 68.6118 0.78509C70.1143 0.59503 71.4603 0.5 72.6498 0.5C75.4671 0.5 78.0653 0.84844 80.4443 1.54532C82.8234 2.2422 84.8581 3.3192 86.5484 4.77632C88.2388 6.23343 89.5535 8.07066 90.4926 10.288C91.4943 12.442 91.9952 14.9761 91.9952 17.8904C91.9952 21.6915 90.9622 25.4927 88.8962 29.2939C86.8302 33.095 84.3259 36.7695 81.3834 40.3173C78.4409 43.8017 75.3106 47.096 71.9925 50.2003C68.737 53.2412 65.8884 55.9337 63.4467 58.2778L63.6346 58.7529Z" fill="#F48514"/>
<path d="M116 60.3684C116 61.8255 115.499 63.0609 114.497 64.0746C113.496 65.0249 112.338 65.5 111.023 65.5C109.583 65.5 108.362 65.0249 107.36 64.0746C106.421 63.0609 105.952 61.8255 105.952 60.3684C105.952 58.9747 106.421 57.8026 107.36 56.8523C108.362 55.8387 109.552 55.3319 110.929 55.3319C112.369 55.3319 113.558 55.8387 114.497 56.8523C115.499 57.8026 116 58.9747 116 60.3684Z" fill="#F48514"/>
</g>
</svg>
