<svg width="96" height="65" viewBox="0 0 96 65" fill="none" xmlns="http://www.w3.org/2000/svg">
<g id="03.">
<path d="M45.9216 32.7851C45.9216 36.5863 45.546 40.3874 44.7947 44.1886C44.0435 47.9898 42.7913 51.4108 41.0384 54.4518C39.348 57.4927 37.0316 59.9635 34.0891 61.864C31.2092 63.7646 27.6093 64.7149 23.2895 64.7149C18.4062 64.7149 14.4307 63.7963 11.363 61.9591C8.35793 60.1218 6.0102 57.7144 4.31983 54.7368C2.62946 51.7593 1.47125 48.3699 0.845184 44.5687C0.281728 40.7675 0 36.903 0 32.9751C0 29.4274 0.313031 25.7212 0.939093 21.8567C1.56516 17.9288 2.72337 14.3494 4.41374 11.1184C6.1041 7.88743 8.45184 5.22661 11.4569 3.13596C14.5246 1.04532 18.5001 0 23.3834 0C26.7015 0 29.5501 0.506822 31.9292 1.52047C34.3082 2.53411 36.3429 3.8962 38.0333 5.60673C39.7236 7.2539 41.0697 9.18616 42.0714 11.4035C43.1357 13.6209 43.9496 15.9649 44.513 18.4357C45.0765 20.8431 45.4521 23.2822 45.6399 25.7529C45.8277 28.2237 45.9216 30.5677 45.9216 32.7851ZM38.2211 32.9751C38.2211 30.5044 38.0959 27.7169 37.8455 24.6126C37.6576 21.5083 37.0629 18.5941 36.0612 15.8699C35.0595 13.1457 33.5569 10.865 31.5535 9.02777C29.6127 7.12719 26.8894 6.1769 23.3834 6.1769C19.8775 6.1769 17.0602 7.06384 14.9316 8.83772C12.8656 10.6116 11.3004 12.8606 10.2361 15.5848C9.17181 18.2456 8.48314 21.1598 8.17011 24.3275C7.85708 27.4951 7.70056 30.441 7.70056 33.1652C7.70056 36.713 7.88838 40.039 8.26402 43.1433C8.70226 46.2476 9.48484 48.9401 10.6118 51.2208C11.7387 53.5015 13.3038 55.307 15.3072 56.6374C17.3732 57.9678 20.0653 58.633 23.3834 58.633C26.3885 58.633 28.8615 57.8728 30.8023 56.3523C32.743 54.8319 34.2456 52.8679 35.3099 50.4605C36.4368 47.9898 37.1881 45.2339 37.5637 42.193C38.002 39.0887 38.2211 36.0161 38.2211 32.9751Z" fill="white"/>
<path d="M82.2286 7.22222L55.6523 7.12719V0.950292H92.2769C92.5273 1.77388 92.7464 2.59747 92.9343 3.42105C93.1221 4.18129 93.3099 4.94152 93.4977 5.70175L74.0585 25.2778L74.3402 25.943H75.7489C78.5035 25.943 81.0704 26.3231 83.4494 27.0833C85.8285 27.7802 87.8632 28.8889 89.5535 30.4094C91.3065 31.8665 92.6525 33.7354 93.5916 36.0161C94.5933 38.2968 95.0942 41.021 95.0942 44.1886C95.0942 47.673 94.4681 50.7139 93.216 53.3114C91.9639 55.9089 90.2735 58.0629 88.1449 59.7734C86.0789 61.4839 83.6372 62.7827 80.82 63.6696C78.0653 64.4932 75.1541 64.905 72.0864 64.905C68.5178 64.8416 65.1684 64.5249 62.0381 63.9547C58.9704 63.3845 56.0592 62.4659 53.3045 61.1988L55.1827 55.6871C58.6261 56.7008 61.5686 57.4293 64.0102 57.8728C66.5144 58.3163 68.7057 58.538 70.5838 58.538C75.7176 58.538 79.787 57.3977 82.7921 55.117C85.8598 52.8363 87.3936 49.2252 87.3936 44.2836C87.3936 40.1023 85.8598 36.9664 82.7921 34.8757C79.787 32.7851 75.4671 31.7398 69.8326 31.7398C68.9561 31.7398 68.1109 31.7714 67.297 31.8348C66.4831 31.8981 65.6066 31.9932 64.6676 32.1199L63.2589 27.5585L82.6042 7.88743L82.2286 7.22222Z" fill="white"/>
</g>
</svg>
