<svg width="48" height="48" viewBox="0 0 48 48" fill="none" xmlns="http://www.w3.org/2000/svg">
<g id="vk">
<path id="bg" d="M0 7.5C0 3.35786 3.35786 0 7.5 0H40.5C44.6421 0 48 3.35786 48 7.5V40.5C48 44.6421 44.6421 48 40.5 48H7.5C3.35786 48 0 44.6421 0 40.5V7.5Z" fill="#2787F5"/>
<g id="vk_2">
<path id="Vector" d="M12 23.5C12 18.0788 12 15.3683 13.6841 13.6841C15.3683 12 18.0788 12 23.5 12H24.5C29.9212 12 32.6318 12 34.3158 13.6841C36 15.3683 36 18.0788 36 23.5V24.5C36 29.9212 36 32.6318 34.3158 34.3158C32.6318 36 29.9212 36 24.5 36H23.5C18.0788 36 15.3683 36 13.6841 34.3158C12 32.6318 12 29.9212 12 24.5L12 23.5Z" fill="#2787F5"/>
<path id="Vector_2" fill-rule="evenodd" clip-rule="evenodd" d="M14.8196 17H11.9752C11.1625 17 11 17.3717 11 17.7814C11 18.5133 11.9643 22.1433 15.49 26.9441C17.8405 30.2227 21.1521 32 24.1656 32C25.9736 32 26.1973 31.6053 26.1973 30.9254V28.4474C26.1973 27.6579 26.3686 27.5003 26.9411 27.5003C27.363 27.5003 28.0862 27.7053 29.7738 29.286C31.7024 31.1595 32.0203 32 33.1051 32H35.9495C36.7622 32 37.1686 31.6053 36.9342 30.8263C36.6777 30.0499 35.7569 28.9234 34.535 27.5882C33.872 26.8271 32.8776 26.0074 32.5763 25.5975C32.1544 25.0706 32.2749 24.8364 32.5763 24.3681C32.5763 24.3681 36.0417 19.6257 36.4034 18.0157C36.5841 17.4302 36.4034 17 35.5432 17H32.6988C31.9756 17 31.6421 17.3717 31.4613 17.7814C31.4613 17.7814 30.0148 21.2065 27.9657 23.4313C27.3027 24.0753 27.0014 24.2802 26.6397 24.2802C26.4589 24.2802 26.1972 24.0753 26.1972 23.4899V18.0157C26.1972 17.3131 25.9874 17 25.3846 17H20.9148C20.4629 17 20.191 17.3261 20.191 17.6351C20.191 18.3011 21.2156 18.4548 21.3212 20.3283V24.3974C21.3212 25.2895 21.1553 25.4512 20.7937 25.4512C19.8294 25.4512 17.4838 22.0109 16.0927 18.0742C15.8201 17.3091 15.5466 17 14.8196 17Z" fill="white"/>
</g>
</g>
</svg>
