<svg width="48" height="48" viewBox="0 0 48 48" fill="none" xmlns="http://www.w3.org/2000/svg">
<g id="youtube">
<path id="bg" d="M40.5 0H7.5C3.35786 0 0 3.35786 0 7.5V40.5C0 44.6421 3.35786 48 7.5 48H40.5C44.6421 48 48 44.6421 48 40.5V7.5C48 3.35786 44.6421 0 40.5 0Z" fill="#FF0000"/>
<path id="youtube_2" d="M35.4 18.1516C35.1 17.1016 34.35 16.3516 33.3 16.0516C31.5 15.6016 23.85 15.6016 23.85 15.6016C23.85 15.6016 16.35 15.6016 14.4 16.0516C13.35 16.3516 12.6 17.1016 12.3 18.1516C12 20.1016 12 24.0016 12 24.0016C12 24.0016 12 27.9016 12.45 29.8516C12.75 30.9016 13.5 31.6516 14.55 31.9516C16.35 32.4016 24 32.4016 24 32.4016C24 32.4016 31.5 32.4016 33.45 31.9516C34.5 31.6516 35.25 30.9016 35.55 29.8516C36 27.9016 36 24.0016 36 24.0016C36 24.0016 36 20.1016 35.4 18.1516ZM21.6 27.6016V20.4016L27.9 24.0016L21.6 27.6016Z" fill="white"/>
</g>
</svg>
